<svg width="200" height="160" viewBox="0 0 200 160" fill="none" xmlns="http://www.w3.org/2000/svg">
<g clip-path="url(#clip0_15:12)">
<path d="M153.125 158.191C150.564 155.296 149.009 150.722 149.417 146.27C149.825 141.817 152.351 137.724 155.628 136.779C158.905 135.833 162.64 138.45 163.636 142.734C164.183 134.476 164.815 125.871 168.096 118.839C171.067 112.471 176.213 107.914 181.79 107.099C187.367 106.284 193.239 109.363 196.717 115.253C200.195 121.143 201.047 129.706 198.611 136.469C196.816 141.45 193.51 145.158 190.046 148.174C178.852 157.838 165.427 161.768 152.24 159.241L153.125 158.191Z" fill="#F2F2F2"/>
<path d="M191.202 109.534C186.6 114.549 182.378 120.158 178.598 126.281C172.682 135.829 167.894 146.534 164.402 158.024C164.147 158.862 165.164 159.227 165.417 158.398C171.13 139.725 180.251 123.267 191.946 110.529C192.471 109.957 191.723 108.966 191.202 109.534Z" fill="white"/>
<path d="M64.3832 157.404C67.9001 153.428 70.0363 147.146 69.4761 141.031C68.9159 134.915 65.4461 129.293 60.9452 127.995C56.4443 126.696 51.3136 130.291 49.9465 136.174C49.1941 124.831 48.3272 113.014 43.8204 103.354C39.7397 94.6079 32.6718 88.3496 25.0118 87.23C17.3517 86.1104 9.28672 90.339 4.50944 98.4292C-0.267838 106.519 -1.43753 118.281 1.90835 127.569C4.37314 134.411 8.91416 139.503 13.672 143.646C28.8512 156.862 47.681 162.375 65.5978 158.846" fill="#F2F2F2"/>
<path d="M12.0843 90.5734C18.4048 97.4621 24.2031 105.167 29.3955 113.575C34.5887 121.976 39.1608 131.03 43.0475 140.612C45.22 145.986 47.1716 151.516 48.8936 157.175C49.2447 158.326 47.8476 158.828 47.5004 157.689C44.4503 147.712 40.6768 138.158 36.234 129.165C31.8127 120.205 26.7523 111.84 21.1239 104.188C17.9405 99.8618 14.5817 95.7731 11.0627 91.9405C10.3414 91.1545 11.369 89.794 12.0843 90.5734L12.0843 90.5734Z" fill="white"/>
<path d="M143.563 159.65H59.6552V44.4497C59.6552 19.94 74.5568 0 92.8735 0H110.345C128.662 0 143.563 19.94 143.563 44.4497V159.65Z" fill="#F2F2F2"/>
<path d="M126.092 159.65H59.6551V44.4498C59.6368 35.0583 61.8593 25.9041 65.999 18.3201C66.1516 18.0417 66.3038 17.767 66.4608 17.4953C68.4631 13.9812 70.846 10.8864 73.5307 8.31297C73.6823 8.16532 73.8346 8.02023 73.9891 7.87514C76.2356 5.79489 78.6657 4.09434 81.2241 2.81218C81.376 2.73512 81.5307 2.65792 81.6854 2.58387C83.9992 1.47895 86.3978 0.722095 88.8367 0.327263C88.9879 0.299624 89.1432 0.277996 89.2984 0.256368C91.6752 -0.083686 94.0723 -0.083686 96.4491 0.256368C96.6039 0.277996 96.7591 0.299621 96.9121 0.327558C99.3505 0.722417 101.748 1.47918 104.062 2.58388C104.216 2.65793 104.371 2.73513 104.523 2.81234C107.05 4.07833 109.452 5.7535 111.674 7.80049C111.829 7.94243 111.983 8.08753 112.136 8.23262C113.64 9.67 115.054 11.2713 116.362 13.0203C117.41 14.4231 118.388 15.9184 119.287 17.4962C119.443 17.767 119.595 18.0418 119.748 18.3196C123.888 25.9037 126.11 35.0581 126.092 44.4498V159.65Z" fill="#CCCCCC"/>
<path d="M120.69 108.125C122.721 108.125 124.368 105.921 124.368 103.203C124.368 100.485 122.721 98.2815 120.69 98.2815C118.658 98.2815 117.011 100.485 117.011 103.203C117.011 105.921 118.658 108.125 120.69 108.125Z" fill="#F71530"/>
<path d="M136.689 156.199H133.871L132.53 141.653L136.69 141.653L136.689 156.199Z" fill="#FFB8B8"/>
<path d="M131.858 155.122H137.293V159.701H128.436C128.436 159.1 128.524 158.504 128.696 157.949C128.868 157.393 129.12 156.888 129.438 156.463C129.756 156.038 130.133 155.7 130.548 155.47C130.963 155.24 131.408 155.122 131.858 155.122V155.122Z" fill="#2F2E41"/>
<path d="M150.712 156.199H147.894L146.553 141.653L150.713 141.653L150.712 156.199Z" fill="#FFB8B8"/>
<path d="M145.881 155.122H151.316V159.701H142.459C142.459 159.1 142.547 158.504 142.719 157.949C142.891 157.393 143.143 156.888 143.461 156.463C143.779 156.038 144.156 155.7 144.571 155.47C144.986 155.24 145.431 155.122 145.881 155.122V155.122Z" fill="#2F2E41"/>
<path d="M122.551 104.178C122.348 103.779 122.214 103.324 122.156 102.847C122.099 102.37 122.121 101.882 122.219 101.418C122.318 100.953 122.492 100.523 122.729 100.158C122.965 99.7929 123.258 99.5017 123.588 99.3048L133.169 63.9706L137.883 67.4132L126.944 101.18C127.154 101.943 127.148 102.783 126.927 103.54C126.706 104.298 126.284 104.92 125.743 105.29C125.201 105.659 124.577 105.75 123.989 105.546C123.401 105.341 122.889 104.854 122.551 104.178V104.178Z" fill="#FFB8B8"/>
<path d="M149.273 110.818C148.96 110.577 148.69 110.248 148.482 109.853C148.274 109.458 148.133 109.007 148.07 108.531C148.006 108.056 148.022 107.567 148.115 107.1C148.208 106.634 148.376 106.2 148.608 105.829L145.64 68.4518L151.005 68.7798L152.238 105.545C152.677 106.108 152.947 106.866 152.996 107.677C153.046 108.488 152.871 109.294 152.506 109.944C152.14 110.594 151.609 111.042 151.013 111.203C150.417 111.364 149.798 111.227 149.273 110.818V110.818Z" fill="#FFB8B8"/>
<path d="M140.714 57.4258C143.832 57.4258 146.36 54.0432 146.36 49.8706C146.36 45.6979 143.832 42.3153 140.714 42.3153C137.596 42.3153 135.068 45.6979 135.068 49.8706C135.068 54.0432 137.596 57.4258 140.714 57.4258Z" fill="#FFB8B8"/>
<path d="M149.237 102.317H132.214L132.235 102.14C132.265 101.875 135.269 75.5502 133.054 66.938C132.831 66.0917 132.851 65.1653 133.109 64.3371C133.366 63.5088 133.844 62.8374 134.449 62.452H134.449C137.615 60.457 143.692 58.0005 148.821 63.9621C149.576 64.8538 150.166 65.9683 150.543 67.2173C150.92 68.4664 151.076 69.8159 150.996 71.1589L149.237 102.317Z" fill="#F71530"/>
<path d="M135.484 79.4405L127.82 77.3601L131.412 65.9693C131.627 64.8661 132.161 63.922 132.895 63.3441C133.63 62.7662 134.505 62.6017 135.33 62.8867C136.155 63.1717 136.862 63.8829 137.296 64.8643C137.73 65.8457 137.855 67.0172 137.644 68.1219L135.484 79.4405Z" fill="#F71530"/>
<path d="M145.299 83.3034L144.838 69.1713C144.489 66.5147 145.625 64.0034 147.373 63.5929C149.122 63.1839 150.829 65.0264 151.18 67.7025L152.912 80.9075L145.299 83.3034Z" fill="#F71530"/>
<path d="M148.67 100.625C151.409 114.583 151.708 132.33 150.969 151.688L147.291 151.073L140.624 114.16L136.946 151.688L132.808 151.381C131.572 131.069 130.368 113.632 132.349 102.163L148.67 100.625Z" fill="#2F2E41"/>
<path d="M144.434 55.7095C143.381 57.2108 141.425 56.4049 141.288 54.3538C141.277 54.1945 141.278 54.0343 141.29 53.8752C141.361 52.9667 141.753 52.1418 141.659 51.1825C141.638 50.9438 141.571 50.7163 141.466 50.5215C140.627 49.0175 138.656 51.1942 137.864 49.8327C137.378 48.9978 137.949 47.6834 137.577 46.7503C137.085 45.5187 135.627 46.1262 134.714 45.4518C133.697 44.7014 133.758 42.614 134.427 41.3444C135.243 39.796 136.674 38.9698 138.087 38.8507C139.501 38.7316 140.904 39.2428 142.224 39.9308C143.723 40.7126 145.209 41.793 146.132 43.5568C147.254 45.7018 147.362 48.5856 146.801 51.0938C146.459 52.6196 145.294 54.4834 144.434 55.7095Z" fill="#2F2E41"/>
<path d="M193.099 159.848H23.3764C23.304 159.847 23.2346 159.809 23.1834 159.74C23.1322 159.671 23.1035 159.578 23.1035 159.481C23.1035 159.384 23.1322 159.291 23.1834 159.223C23.2346 159.154 23.304 159.115 23.3764 159.115H193.099C193.172 159.115 193.241 159.154 193.292 159.223C193.343 159.291 193.372 159.384 193.372 159.481C193.372 159.578 193.343 159.671 193.292 159.74C193.241 159.809 193.172 159.847 193.099 159.848V159.848Z" fill="#3F3D56"/>
<path d="M107.816 126.274H77.931C77.5374 126.277 77.1591 126.071 76.879 125.701C76.5988 125.331 76.4398 124.827 76.4368 124.301V35.0415C76.4398 34.5149 76.5988 34.0113 76.879 33.6414C77.1591 33.2714 77.5374 33.0653 77.931 33.0681H107.816C108.21 33.0653 108.588 33.2714 108.868 33.6414C109.148 34.0113 109.307 34.5149 109.31 35.0415V124.301C109.307 124.827 109.148 125.331 108.868 125.701C108.588 126.071 108.21 126.277 107.816 126.274V126.274Z" fill="white"/>
<path d="M109.31 61.9495H76.4368V62.5648H109.31V61.9495Z" fill="#CCCCCC"/>
<path d="M109.425 97.0511H76.5517V97.6663H109.425V97.0511Z" fill="#CCCCCC"/>
<path d="M87.2414 33.0681H86.7816V126.582H87.2414V33.0681Z" fill="#CCCCCC"/>
<path d="M98.7356 33.0681H98.2759V126.582H98.7356V33.0681Z" fill="#CCCCCC"/>
</g>
<defs>
<clipPath id="clip0_15:12">
<rect width="200" height="160" fill="white"/>
</clipPath>
</defs>
</svg>
