<svg width="277" height="233" viewBox="0 0 277 233" fill="none" xmlns="http://www.w3.org/2000/svg">
<g clip-path="url(#clip0_15:38)">
<path d="M115.223 202.42L118.249 192.797C114.609 188.884 110.046 185.898 104.956 184.098C109.929 192.144 105.11 202.641 107.118 211.833C107.767 214.695 109.067 217.378 110.921 219.683C112.776 221.988 115.138 223.855 117.832 225.147L122.423 230.703C124.83 226.596 126.296 222.028 126.722 217.314C127.147 212.6 126.521 207.852 124.887 203.397C123.944 200.907 122.685 198.542 121.138 196.359C118.41 199.492 115.223 202.42 115.223 202.42Z" fill="#F2F2F2"/>
<path d="M98.5881 203.65L96.9018 193.718C91.8569 191.802 86.4093 191.117 81.032 191.723C89.157 196.759 89.6371 208.253 95.6315 215.605C97.519 217.884 99.9075 219.72 102.62 220.975C105.332 222.23 108.299 222.872 111.3 222.855L117.947 225.828C118.225 221.104 117.452 216.376 115.681 211.972C113.909 207.567 111.18 203.59 107.683 200.315C105.703 198.496 103.496 196.929 101.114 195.649C100.103 199.641 98.5881 203.65 98.5881 203.65Z" fill="#F2F2F2"/>
<path d="M197.607 228.234L192.946 228.233L190.729 210.677L197.608 210.678L197.607 228.234Z" fill="#FFB6B6"/>
<path d="M198.795 232.645L183.769 232.645V232.459C183.769 230.944 184.385 229.491 185.482 228.42C186.579 227.349 188.066 226.747 189.618 226.747H189.618L192.363 224.713L197.484 226.747L198.795 226.747L198.795 232.645Z" fill="#2F2E41"/>
<path d="M272.885 211.632L269.708 214.961L255.047 204.575L259.737 199.661L272.885 211.632Z" fill="#FFB6B6"/>
<path d="M277 213.791L266.755 224.526L266.616 224.4C265.481 223.367 264.813 221.936 264.758 220.422C264.704 218.908 265.267 217.435 266.325 216.326L266.325 216.326L266.673 212.978L271.688 210.706L272.583 209.769L277 213.791Z" fill="#2F2E41"/>
<path d="M265.99 201.765L261.064 211.827L230.817 192.267L226.417 186.411L211.989 167.211L206.125 176.3L202.044 185.802C200.714 186.649 199.593 187.774 198.763 189.096C197.932 190.418 197.413 191.903 197.241 193.445L197.055 195.127L199.633 217.769L189.832 220.708L184.203 190.293L186.043 183.702L187.938 174.45L197.476 145.215H223L237.639 175.65L238.709 181.851L242.86 186.504L265.99 201.765Z" fill="#2F2E41"/>
<path d="M212.946 97.3827L217.243 100.578L222.425 102.133C222.425 102.133 224.567 131.564 226.497 133.45C228.427 135.335 226.686 135.386 227.074 137.835C227.462 140.284 228.405 145.304 228.405 145.304C215.376 152.04 204.143 152.221 195.121 144.338C195.005 143.851 195.064 143.339 195.287 142.889C195.51 142.438 195.884 142.075 196.347 141.861C198.026 140.991 194.799 136.929 196.171 136.25C197.544 135.571 195.613 129.679 195.613 129.679L196.88 117.387L195.879 115.422L198.321 103.399L202.557 101.888L204.249 97.9062L212.946 97.3827Z" fill="#3F3D56"/>
<path d="M215.638 149.691C215.619 149.16 215.719 148.631 215.932 148.141C216.144 147.652 216.465 147.213 216.869 146.858C217.274 146.502 217.754 146.238 218.275 146.083C218.796 145.928 219.345 145.886 219.884 145.961L225.94 134.465L229.313 140.32L223.046 150.339C222.857 151.215 222.346 151.993 221.609 152.526C220.872 153.058 219.961 153.308 219.047 153.229C218.134 153.149 217.283 152.745 216.654 152.093C216.026 151.441 215.664 150.586 215.638 149.691H215.638Z" fill="#FFB6B6"/>
<path d="M225.835 146.879L238.823 127.218L238.78 127.128C238.731 127.024 235.79 120.82 232.941 115.138C232.502 114.263 232.065 113.4 231.641 112.574C231.459 112.217 231.278 111.868 231.101 111.526C229.904 109.222 228.858 107.317 228.234 106.412C226.853 104.366 224.798 102.843 222.409 102.096L222.348 102.081L222.291 102.104C221.122 102.586 220.157 103.442 219.553 104.531C218.95 105.621 218.744 106.879 218.971 108.098C220.098 113.978 222.608 119.521 226.304 124.29L228.409 127.001L221.092 142.538L225.835 146.879Z" fill="#3F3D56"/>
<path d="M181.174 71.5164C181.532 71.9175 181.795 72.3902 181.945 72.9014C182.096 73.4125 182.129 73.9497 182.044 74.475C181.959 75.0003 181.757 75.5009 181.452 75.9417C181.147 76.3824 180.747 76.7525 180.28 77.026L182.988 89.6805L176.593 87.2074L175.002 75.5696C174.584 74.7729 174.479 73.8539 174.708 72.9869C174.937 72.1199 175.484 71.365 176.245 70.8654C177.006 70.3658 177.928 70.1561 178.836 70.2761C179.745 70.3961 180.576 70.8374 181.174 71.5164H181.174Z" fill="#FFB6B6"/>
<path d="M175.065 79.9729L177.651 103.234L177.743 103.278C177.818 103.314 181.095 104.884 185.117 106.753C185.795 107.068 185.698 108.434 186.407 108.761C186.895 108.986 188.185 108.17 188.679 108.395C193.075 110.403 197.52 112.356 199.292 112.885C201.683 113.625 204.262 113.544 206.6 112.655L206.656 112.63L206.686 112.576C207.283 111.483 207.481 110.224 207.248 109.006C207.014 107.789 206.363 106.685 205.401 105.878C200.735 102.003 195.211 99.2407 189.265 97.8086L185.882 96.9978L181.548 80.4276L175.065 79.9729Z" fill="#3F3D56"/>
<path d="M208.365 96.0647C213.059 96.0647 216.864 92.3483 216.864 87.7638C216.864 83.1793 213.059 79.4629 208.365 79.4629C203.671 79.4629 199.866 83.1793 199.866 87.7638C199.866 92.3483 203.671 96.0647 208.365 96.0647Z" fill="#FFB6B6"/>
<path d="M199.927 82.2014C200.626 80.2155 204.105 78.838 209.746 78.6464C215.386 78.4549 216.817 84.9471 216.817 84.9471C220.582 87.9305 212.796 95.9178 212.419 95.6301L212.589 94.1295C212.869 91.6438 214.061 89.7044 212.545 87.1139L211.09 87.1302C209.21 87.4832 207.331 87.8362 205.451 88.1892L207.677 86.2756L207.614 86.1808C206.667 86.6623 205.637 86.9678 204.576 87.0816C203.38 87.1503 202.073 86.6854 201.5 85.6577C201.347 85.3752 201.254 85.0656 201.225 84.7473C199.612 85.3766 198.875 87.3185 198.875 87.3185C198.875 87.3185 199.228 84.1874 199.927 82.2014Z" fill="#2F2E41"/>
<path d="M34.2418 82.6994C34.1265 82.5566 34.0023 82.4208 33.87 82.2929C33.9023 82.2494 33.9347 82.2021 33.967 82.1587L34.2418 82.6994Z" fill="#2F2E41"/>
<path d="M35.8948 116.085C34.5045 118.497 31.7281 119.843 28.9759 120.502C25.8846 121.293 22.6293 121.232 19.5716 120.325C19.1836 120.202 18.7956 120.06 18.4198 119.902C18.6005 119.434 18.7437 118.952 18.8482 118.462C18.9888 117.798 19.0593 117.122 19.0583 116.445C18.7521 117.028 18.3554 117.562 17.8823 118.027C17.5173 118.402 17.1028 118.727 16.6496 118.995C15.2442 118.161 14.0273 117.057 13.073 115.75C13.1336 115.604 13.1943 115.458 13.2508 115.312C13.5443 114.549 13.7767 113.765 13.9459 112.967C14.1756 111.888 14.2907 110.789 14.2895 109.687C13.7912 110.636 13.1449 111.505 12.3738 112.26C12.1427 112.502 11.8971 112.73 11.6383 112.943C11.2376 111.755 11.0827 110.5 11.1826 109.253C11.2825 108.005 11.6352 106.79 12.2203 105.676C13.8207 102.787 16.9244 101.07 19.6888 99.2029C22.4571 97.3359 25.2255 94.8096 25.4599 91.5295C25.6175 89.315 24.5667 87.0967 24.987 84.9178C25.1638 83.9989 25.5954 83.1451 26.2347 82.4493C26.874 81.7535 27.6965 81.2424 28.6127 80.9717C29.5289 80.7009 30.5036 80.6809 31.4306 80.9139C32.3576 81.1469 33.2014 81.6238 33.87 82.2928C32.302 84.4638 30.742 86.7098 30.1075 89.2913C29.4609 91.9202 29.9903 95.003 32.112 96.7438C32.8395 97.3438 33.7326 97.7701 34.2944 98.52C35.042 99.5148 35.0461 100.841 35.1673 102.065C35.4098 104.445 36.206 106.734 36.6343 109.091C37.0668 111.443 37.091 113.997 35.8948 116.085Z" fill="#2F2E41"/>
<path d="M7.39563 213.972L11.0842 216.755L23.8316 204.184L18.3877 200.076L7.39563 213.972Z" fill="#A0616A"/>
<path d="M7.55252 211.252L13.6519 215.312L11.7217 217.752L14.3068 225.675C14.4345 226.066 14.4308 226.487 14.2963 226.876C14.1618 227.265 13.9034 227.602 13.5589 227.837C13.2145 228.073 12.8019 228.195 12.3816 228.185C11.9612 228.175 11.555 228.035 11.2223 227.784L4.28082 222.545L4.99365 219.229L2.6172 221.289L0 219.314L7.55252 211.252Z" fill="#2F2E41"/>
<path d="M26.1086 89.7123C26.1081 91.1198 26.4613 92.506 27.1373 93.749C27.8133 94.9921 28.7914 96.0541 29.9857 96.8418C31.1801 97.6295 32.5541 98.1188 33.9872 98.2668C35.4203 98.4147 36.8687 98.2168 38.2053 97.6904C39.5418 97.164 40.7256 96.3252 41.6527 95.2476C42.5799 94.17 43.222 92.8866 43.5228 91.5101C43.8235 90.1335 43.7737 88.7059 43.3777 87.3525C42.9817 85.9992 42.2516 84.7615 41.2515 83.748L41.2093 83.7068C41.1388 83.6345 41.0684 83.5623 40.9944 83.4935C40.994 83.4935 40.9935 83.4934 40.9931 83.4933C40.9926 83.4931 40.9922 83.4928 40.9919 83.4925C40.9916 83.4922 40.9913 83.4918 40.9912 83.4914C40.991 83.491 40.9909 83.4905 40.9909 83.4901C40.8993 83.4075 40.8078 83.325 40.7127 83.2459C39.1632 81.9182 36.9854 80.4771 34.7633 80.4771C29.8999 80.4771 26.1086 84.9622 26.1086 89.7123Z" fill="#2F2E41"/>
<path d="M76.29 85.2964C76.3321 85.755 76.2708 86.2171 76.1103 86.6501C75.9498 87.083 75.6941 87.4764 75.3612 87.8024C75.0282 88.1284 74.6261 88.3792 74.1832 88.537C73.7403 88.6948 73.2674 88.7558 72.7977 88.7158L50.9968 107.941L47.2451 102.154L69.8544 85.0758C69.9755 84.3096 70.3802 83.6134 70.9918 83.1192C71.6033 82.6249 72.3792 82.367 73.1725 82.3942C73.9658 82.4214 74.7213 82.7318 75.2958 83.2667C75.8704 83.8016 76.2241 84.5238 76.29 85.2964V85.2964Z" fill="#A0616A"/>
<path d="M41.6795 113.744C41.6795 113.744 42.4906 115.208 45.2614 112.948C47.4796 111.139 58.107 103.287 60.3964 100.069C60.9192 100.271 61.4961 100.298 62.0361 100.145C62.5761 99.9915 63.0486 99.6672 63.3792 99.2229L57.1061 93.857C55.2292 94.0681 55.2695 95.2996 55.4649 95.9987L50.7331 98.0927L38.5139 105.72L41.0739 112.697L41.6795 113.744Z" fill="#F71530"/>
<path d="M29.842 127.225L29.3851 129.351L28.9971 137.19L46.0791 138.107L45.5486 126.05L43.8929 123.393L29.842 127.225Z" fill="#A0616A"/>
<path d="M37.0816 98.9124C41.1589 98.9124 44.4642 95.6841 44.4642 91.7018C44.4642 87.7195 41.1589 84.4912 37.0816 84.4912C33.0044 84.4912 29.6991 87.7195 29.6991 91.7018C29.6991 95.6841 33.0044 98.9124 37.0816 98.9124Z" fill="#A0616A"/>
<path d="M23.9748 118.298L23.9294 112.304C23.9284 110.147 24.6756 108.054 26.0492 106.365C27.4228 104.677 29.3417 103.493 31.4928 103.006L31.5207 103L32.9805 101.079L38.9114 101.658L39.9985 103.828L44.2961 106.328L45.9507 111.523C46.6684 111.99 47.2801 112.597 47.7477 113.304C48.2153 114.012 48.5289 114.806 48.669 115.638C49.2307 119.142 46.7183 122.649 46.4195 123.051L45.6495 127.287L28.8985 130.174L28.7625 130.19L23.9748 118.298Z" fill="#F71530"/>
<path d="M46.1155 90.4163C45.2544 90.949 44.3609 91.4302 43.44 91.8571C42.5054 92.2956 41.5278 92.6408 40.5222 92.8873C40.2344 92.2707 39.8823 91.6847 39.4714 91.1387C39.5771 91.7857 39.5799 92.4448 39.4795 93.0926C37.8126 93.3552 36.1053 93.2184 34.5045 92.6939L33.1143 90.4163L33.0092 92.9584C31.8574 93.1636 30.7097 93.3571 29.5579 93.5584C29.4892 93.5663 29.4205 93.5821 29.3558 93.5939C28.6404 90.444 29.6549 86.9743 31.91 84.8744C33.0296 83.8427 34.4263 83.1428 35.9374 82.8563C37.4485 82.5698 39.0118 82.7084 40.4454 83.256C40.6273 83.3271 40.8131 83.406 40.991 83.4889C40.991 83.4894 40.9911 83.4899 40.9913 83.4904C40.9915 83.4909 40.9917 83.4914 40.9921 83.4917C40.9925 83.4921 40.993 83.4924 40.9935 83.4926C40.9939 83.4928 40.9945 83.4929 40.995 83.4929C41.1001 83.5442 41.189 83.6665 41.3062 83.6547C46.3499 83.106 46.5115 86.9269 46.1155 90.4163Z" fill="#2F2E41"/>
<path d="M33.834 204.674L37.5282 207.45L50.2499 194.854L44.7976 190.757L33.834 204.674Z" fill="#A0616A"/>
<path d="M34.3203 202.205L40.4281 206.254L38.5029 208.697L41.1043 216.615C41.2329 217.006 41.2301 217.427 41.0963 217.816C40.9626 218.206 40.7049 218.543 40.3609 218.779C40.0169 219.015 39.6047 219.138 39.1843 219.129C38.7639 219.12 38.3574 218.98 38.0242 218.73L31.0719 213.505L31.7779 210.187L29.4057 212.253L26.7844 210.283L34.3203 202.205Z" fill="#2F2E41"/>
<path d="M21.8465 189.301L21.8464 189.254L23.5972 186.307L21.8094 182.471L21.7557 172.616L22.0456 171.136C22.4353 169.146 22.3219 167.094 21.7152 165.157L21.6825 159.158C21.6197 157.655 24.0032 156.333 23.4474 155.08C18.1936 143.239 28.8124 134.205 28.8841 134.132L29.1011 133.912L30.2784 134.783L31.3991 134.784L46.5214 137.476L46.6306 137.675C47.2253 138.764 48.3732 142.52 48.4413 144.22C49.195 145.072 57.7799 154.775 58.5431 155.449C63.7001 160.006 66.6527 167.549 67.9537 171.64C68.2768 172.651 68.3419 173.724 68.1434 174.765C67.9449 175.807 67.4887 176.785 66.8147 177.614L47.2916 198.5L42.0378 193.764L52.6015 174.962L51.8398 173.055C50.473 172.808 49.2361 172.107 48.34 171.069L46.2009 168.589C45.6087 167.904 45.2323 167.067 45.1174 166.177L43.8202 166.025L39.1736 161.26L35.9498 189.774L35.0733 192.027L19.8101 209.553L13.3439 205.605L21.8465 189.301Z" fill="#2F2E41"/>
<path d="M19.5155 66.8626C19.2223 67.2232 19.0136 67.6422 18.904 68.09C18.7945 68.5379 18.7869 69.0038 18.8816 69.4549C18.9764 69.906 19.1713 70.3313 19.4525 70.7008C19.7338 71.0704 20.0946 71.3752 20.5095 71.5938L15.6561 85.6276L19.6192 100.5L26.0096 97.6779L22.0662 86.4603L25.0165 70.1323C25.3464 69.4271 25.3999 68.6283 25.167 67.8871C24.9342 67.146 24.431 66.514 23.7529 66.111C23.0749 65.708 22.269 65.5619 21.488 65.7004C20.707 65.8389 20.0052 66.2524 19.5155 66.8626V66.8626Z" fill="#A0616A"/>
<path d="M25.3651 112.753C25.3651 112.753 23.8641 113.541 22.8203 110.166C21.9846 107.464 16.2975 92.7947 16.195 88.8774C15.6444 88.7658 15.1474 88.4785 14.7824 88.0608C14.4174 87.643 14.205 87.1184 14.1788 86.5698L22.4388 85.4534C23.8882 86.637 23.1618 87.6443 22.6051 88.1236L25.4184 92.7779L31.2985 105.343L26.4604 112.203L25.3651 112.753Z" fill="#F71530"/>
<path d="M29.5563 93.5577C30.4045 91.0593 31.9255 88.8298 33.9597 87.1032C35.9939 85.3766 38.4664 84.2165 41.1177 83.7446C41.1282 83.7412 41.1635 83.7274 41.2093 83.7068C41.2374 83.6896 41.2726 83.6724 41.3079 83.6552C41.2022 83.5967 41.1001 83.5452 40.9944 83.4935C40.994 83.4935 40.9935 83.4934 40.9931 83.4933C40.9926 83.4931 40.9922 83.4928 40.9919 83.4925C40.9916 83.4922 40.9913 83.4918 40.9912 83.4914C40.991 83.491 40.9909 83.4905 40.9909 83.4901C40.8994 83.4075 40.8078 83.325 40.7127 83.2459L40.4451 83.2562C40.4451 83.2562 31.0389 81.8013 29.5563 93.5577Z" fill="#FD6584"/>
<path d="M150.93 173.909C151.957 172.401 151.349 170.244 149.573 169.09C147.797 167.936 145.525 168.222 144.498 169.729C143.472 171.236 144.079 173.393 145.855 174.548C147.631 175.702 149.903 175.416 150.93 173.909Z" fill="#F2F2F2"/>
<path d="M130.091 117.658C131.117 116.151 130.51 113.994 128.734 112.84C126.958 111.685 124.686 111.972 123.659 113.479C122.632 114.986 123.24 117.143 125.016 118.297C126.792 119.451 129.064 119.165 130.091 117.658Z" fill="#F2F2F2"/>
<path d="M217.236 204.254C218.263 202.747 217.655 200.59 215.879 199.435C214.103 198.281 211.831 198.567 210.804 200.075C209.778 201.582 210.385 203.739 212.162 204.893C213.938 206.047 216.21 205.761 217.236 204.254Z" fill="#F2F2F2"/>
<path d="M41.0511 23.2908C42.0777 21.7838 41.4701 19.6264 39.6939 18.4722C37.9178 17.3181 35.6458 17.6042 34.6192 19.1113C33.5926 20.6184 34.2002 22.7758 35.9763 23.9299C37.7525 25.084 40.0245 24.7979 41.0511 23.2908Z" fill="#F2F2F2"/>
<path d="M123.271 5.52756C124.297 4.02047 123.69 1.86312 121.914 0.708976C120.138 -0.445169 117.865 -0.159058 116.839 1.34803C115.812 2.85512 116.42 5.0125 118.196 6.16664C119.972 7.32079 122.244 7.03465 123.271 5.52756Z" fill="#F2F2F2"/>
<path d="M84.3585 154.559C85.3851 153.052 84.7775 150.895 83.0013 149.741C81.2252 148.587 78.9531 148.873 77.9265 150.38C76.9 151.887 77.5076 154.044 79.2837 155.198C81.0599 156.353 83.3319 156.066 84.3585 154.559Z" fill="#E6E6E6"/>
<path d="M253.96 233H7.56775C7.44833 233 7.33392 232.953 7.24959 232.871C7.16527 232.788 7.11792 232.676 7.11792 232.559C7.11792 232.443 7.16527 232.331 7.24959 232.248C7.33392 232.166 7.44833 232.119 7.56775 232.119H253.96C254.079 232.119 254.194 232.165 254.279 232.248C254.363 232.33 254.411 232.443 254.411 232.559C254.411 232.676 254.363 232.788 254.279 232.871C254.194 232.954 254.079 233 253.96 233V233Z" fill="#CCCCCC"/>
<path d="M53.4272 86.6558C51.3546 86.65 49.3569 85.8983 47.816 84.5444C46.2751 83.1906 45.2991 81.3296 45.0745 79.3172L40.2644 35.6837C40.028 33.5172 40.6812 31.3477 42.0806 29.6511C43.4799 27.9544 45.5113 26.8693 47.7288 26.6336L190.554 11.6133C192.772 11.3824 194.994 12.0203 196.731 13.3871C198.468 14.7538 199.579 16.7378 199.82 18.9038L204.631 62.5371C204.867 64.7036 204.214 66.8732 202.814 68.5699C201.415 70.2666 199.384 71.3518 197.166 71.5875L197.146 71.4035L197.166 71.5875L54.3406 86.6078C54.0372 86.6397 53.7323 86.6558 53.4272 86.6558V86.6558Z" fill="#E6E6E6"/>
<path d="M188.981 13.6389C188.713 13.639 188.444 13.6532 188.178 13.6812L50.5019 28.16C49.5392 28.2612 48.6064 28.5466 47.7566 29C46.9069 29.4533 46.1569 30.0657 45.5495 30.8022C44.9421 31.5386 44.4892 32.3847 44.2165 33.2921C43.9439 34.1995 43.8569 35.1505 43.9606 36.0908L46.3927 58.1523C46.7858 61.7188 47.8943 65.1748 49.6549 68.3229C51.4155 71.471 53.7938 74.2495 56.6538 76.4999C59.5139 78.7503 62.7998 80.4284 66.3238 81.4384C69.8479 82.4485 73.5412 82.7707 77.1927 82.3867L174.002 72.2056C177.642 71.8228 181.17 70.7434 184.383 69.029C187.597 67.3146 190.433 64.9988 192.73 62.2139C195.027 59.4289 196.74 56.2294 197.771 52.7978C198.802 49.3663 199.131 45.7701 198.739 42.2144L196.297 20.0701C196.103 18.3063 195.249 16.6746 193.899 15.4878C192.548 14.3011 190.797 13.6427 188.981 13.6389V13.6389Z" fill="white"/>
<path d="M159.988 36.5986L83.0396 44.691C82.8196 44.7145 82.597 44.6953 82.3846 44.6346C82.1722 44.574 81.9741 44.473 81.8016 44.3375C81.6292 44.202 81.4858 44.0346 81.3796 43.845C81.2734 43.6553 81.2066 43.447 81.1829 43.2321C81.1592 43.0172 81.1791 42.7998 81.2415 42.5924C81.3039 42.385 81.4075 42.1916 81.5465 42.0234C81.6855 41.8551 81.857 41.7153 82.0514 41.6119C82.2457 41.5084 82.459 41.4434 82.6791 41.4206L159.628 33.3282C159.848 33.3047 160.071 33.3239 160.283 33.3846C160.495 33.4452 160.693 33.5462 160.866 33.6817C161.038 33.8172 161.182 33.9846 161.288 34.1742C161.394 34.3639 161.461 34.5722 161.485 34.7871C161.508 35.002 161.488 35.2194 161.426 35.4268C161.364 35.6342 161.26 35.8276 161.121 35.9958C160.982 36.1641 160.811 36.3039 160.616 36.4074C160.422 36.5108 160.209 36.5758 159.988 36.5986V36.5986Z" fill="#F71530"/>
<path d="M161.095 46.636L84.1462 54.7284C83.7021 54.7751 83.2573 54.6476 82.9095 54.3739C82.5617 54.1003 82.3395 53.7029 82.2917 53.2692C82.2439 52.8355 82.3744 52.401 82.6546 52.0613C82.9347 51.7216 83.3416 51.5046 83.7856 51.4579L160.734 43.3655C161.178 43.3188 161.623 43.4463 161.971 43.7199C162.319 43.9936 162.541 44.391 162.589 44.8246C162.637 45.2583 162.506 45.6928 162.226 46.0325C161.946 46.3722 161.539 46.5893 161.095 46.636V46.636Z" fill="#F71530"/>
<path d="M94.22 63.8224L85.2527 64.7654C84.8087 64.8121 84.3639 64.6846 84.0161 64.411C83.6683 64.1373 83.446 63.7399 83.3982 63.3063C83.3504 62.8726 83.481 62.4381 83.7611 62.0984C84.0413 61.7587 84.4482 61.5416 84.8922 61.4949L93.8594 60.5519C94.0795 60.5285 94.3021 60.5476 94.5145 60.6083C94.7269 60.6689 94.925 60.7699 95.0975 60.9054C95.2699 61.0409 95.4133 61.2083 95.5195 61.398C95.6257 61.5876 95.6925 61.7959 95.7162 62.0108C95.7399 62.2258 95.72 62.4431 95.6576 62.6505C95.5952 62.8579 95.4915 63.0513 95.3526 63.2195C95.2136 63.3878 95.0421 63.5276 94.8477 63.6311C94.6534 63.7345 94.4401 63.7995 94.22 63.8224Z" fill="#F71530"/>
<path d="M50.3996 37.5248C52.0736 37.5248 53.4307 36.1993 53.4307 34.5642C53.4307 32.9292 52.0736 31.6037 50.3996 31.6037C48.7255 31.6037 47.3684 32.9292 47.3684 34.5642C47.3684 36.1993 48.7255 37.5248 50.3996 37.5248Z" fill="#3F3D56"/>
<path d="M186.043 22.7221C187.717 22.7221 189.074 21.3966 189.074 19.7615C189.074 18.1265 187.717 16.801 186.043 16.801C184.369 16.801 183.012 18.1265 183.012 19.7615C183.012 21.3966 184.369 22.7221 186.043 22.7221Z" fill="#3F3D56"/>
<path d="M145.063 83.5008C144.785 83.2619 144.564 82.9654 144.418 82.6328C144.271 82.3002 144.202 81.9399 144.216 81.5781C144.368 77.2779 143.643 72.9912 142.083 68.9674C141.951 68.6291 141.897 68.2664 141.927 67.9054C141.956 67.5444 142.067 67.1944 142.252 66.8806C142.43 66.5791 142.672 66.3192 142.964 66.1191C143.255 65.919 143.587 65.7836 143.938 65.7224C147.461 63.6459 151.073 63.0629 154.675 63.99C155.256 63.9065 155.848 64.028 156.345 64.3326C156.843 64.6372 157.213 65.105 157.389 65.652C158.847 70.2764 159.659 75.0722 159.801 79.9089C159.814 80.4892 159.613 81.0548 159.234 81.5018C158.855 81.9488 158.323 82.2472 157.737 82.3422L147.078 84.0623C146.72 84.1207 146.354 84.1006 146.006 84.0035C145.657 83.9064 145.335 83.7347 145.063 83.5008V83.5008Z" fill="#F71530"/>
<path d="M146.01 70.9719L154.982 69.5242C155.056 69.5125 155.126 69.4867 155.19 69.4482C155.253 69.4098 155.309 69.3594 155.352 69.3001C155.396 69.2408 155.427 69.1737 155.444 69.1026C155.461 69.0316 155.464 68.9579 155.451 68.8859C155.439 68.8138 155.413 68.7449 155.373 68.6829C155.334 68.6209 155.282 68.5672 155.221 68.5247C155.16 68.4823 155.091 68.452 155.019 68.4355C154.946 68.4191 154.87 68.4168 154.797 68.4289L145.825 69.8766C145.676 69.9009 145.544 69.9817 145.456 70.1013C145.369 70.2209 145.334 70.3695 145.358 70.5145C145.383 70.6596 145.465 70.7892 145.587 70.8749C145.71 70.9607 145.862 70.9956 146.01 70.9719Z" fill="white"/>
<path d="M146.751 75.3533L155.723 73.9056C155.872 73.8816 156.005 73.8009 156.092 73.6813C156.18 73.5616 156.216 73.4127 156.191 73.2675C156.167 73.1222 156.084 72.9925 155.961 72.9067C155.839 72.821 155.687 72.7863 155.538 72.8103L146.566 74.258C146.492 74.2697 146.422 74.2955 146.358 74.334C146.294 74.3724 146.239 74.4228 146.196 74.4821C146.152 74.5414 146.121 74.6085 146.104 74.6796C146.087 74.7507 146.084 74.8243 146.097 74.8963C146.109 74.9684 146.135 75.0374 146.175 75.0993C146.214 75.1613 146.266 75.215 146.327 75.2575C146.388 75.2999 146.456 75.3302 146.529 75.3467C146.602 75.3631 146.678 75.3654 146.751 75.3533V75.3533Z" fill="white"/>
<path d="M147.492 79.7348L156.464 78.2871C156.613 78.2631 156.746 78.1824 156.834 78.0627C156.921 77.943 156.957 77.7942 156.932 77.6489C156.908 77.5036 156.825 77.3739 156.703 77.2881C156.58 77.2024 156.428 77.1677 156.279 77.1917L147.307 78.6394C147.233 78.6513 147.163 78.6772 147.1 78.7157C147.036 78.7542 146.981 78.8045 146.938 78.8638C146.894 78.9231 146.863 78.9901 146.846 79.0611C146.829 79.1321 146.827 79.2056 146.839 79.2776C146.851 79.3495 146.878 79.4184 146.917 79.4803C146.957 79.5422 147.008 79.5959 147.069 79.6383C147.129 79.6808 147.198 79.7112 147.271 79.7277C147.343 79.7442 147.419 79.7466 147.492 79.7348Z" fill="white"/>
</g>
<defs>
<clipPath id="clip0_15:38">
<rect width="277" height="233" fill="white"/>
</clipPath>
</defs>
</svg>
