<svg width="303" height="297" viewBox="0 0 303 297" fill="none" xmlns="http://www.w3.org/2000/svg">
<g clip-path="url(#clip0_19:23)">
<path opacity="0.1" d="M98.2236 10.5625C107.084 1.30338 120.991 -0.594735 133.651 0.142432C173.413 2.46433 209.305 24.9996 240.353 50.4942C251.594 59.7212 262.659 69.6676 269.953 82.3775C284.816 108.25 280.4 144.089 259.75 165.403C252.722 172.654 244.205 178.223 235.46 183.142C219.912 191.902 203.135 198.935 185.488 200.947C172.907 202.372 160.167 201.215 147.655 199.224C112.704 193.647 78.4018 181.34 49.6381 160.286C37.0261 151.052 25.139 139.57 19.9402 124.638C14.7413 109.706 18.0687 90.7606 30.9476 81.9039C36.2739 78.2465 42.6436 76.5941 48.8767 75.0415C58.0552 72.7587 67.3792 70.5081 75.6598 65.8678C84.2164 61.0745 94.3442 51.8047 92.6456 41.1923C90.8378 29.8214 89.3758 19.8216 98.2236 10.5625Z" fill="#F44C45"/>
<path d="M207.758 238.205C207.758 238.205 215.359 222.397 226.803 217.842C231.615 215.967 235.778 212.311 238.669 207.422C240.026 205.088 241.198 202.614 242.169 200.029" stroke="#535461" stroke-width="2" stroke-miterlimit="10"/>
<path d="M249.37 197.105C248.066 198.594 241.99 200.128 241.99 200.128C241.99 200.128 243.48 193.045 244.784 191.56C245.41 190.846 246.253 190.453 247.125 190.468C247.998 190.484 248.83 190.905 249.438 191.64C250.047 192.376 250.381 193.364 250.368 194.389C250.355 195.414 249.996 196.391 249.37 197.105V197.105Z" fill="#F44C45"/>
<path d="M245.934 209.922C244.15 210.338 238.351 207.753 238.351 207.753C238.351 207.753 242.882 202.767 244.663 202.34C245.519 202.14 246.408 202.348 247.134 202.918C247.86 203.487 248.363 204.372 248.533 205.378C248.703 206.383 248.526 207.427 248.041 208.279C247.556 209.131 246.802 209.722 245.946 209.922H245.934Z" fill="#F44C45"/>
<path d="M233.422 223.789C231.702 223.077 227.798 217.414 227.798 217.414C227.798 217.414 233.865 215.791 235.575 216.489C235.993 216.646 236.379 216.9 236.711 217.235C237.044 217.571 237.316 217.98 237.512 218.441C237.707 218.901 237.823 219.403 237.851 219.916C237.88 220.43 237.82 220.945 237.677 221.431C237.534 221.917 237.309 222.365 237.016 222.748C236.723 223.131 236.368 223.441 235.972 223.661C235.575 223.881 235.146 224.005 234.708 224.027C234.27 224.049 233.833 223.968 233.422 223.789V223.789Z" fill="#F44C45"/>
<path d="M221.941 231.78C220.149 231.424 215.484 226.613 215.484 226.613C215.484 226.613 221.219 223.807 223.012 224.156C223.442 224.234 223.854 224.412 224.224 224.678C224.595 224.944 224.918 225.295 225.173 225.708C225.427 226.121 225.61 226.59 225.71 227.087C225.81 227.584 225.825 228.099 225.754 228.602C225.683 229.106 225.528 229.588 225.298 230.021C225.068 230.454 224.766 230.829 224.412 231.125C224.057 231.42 223.656 231.63 223.232 231.743C222.808 231.855 222.369 231.868 221.941 231.78V231.78Z" fill="#F44C45"/>
<path d="M233.273 202.219C233.273 204.356 236.561 210.541 236.561 210.541C236.561 210.541 239.855 204.356 239.855 202.222C239.855 201.198 239.508 200.215 238.891 199.49C238.274 198.766 237.437 198.359 236.564 198.359C235.691 198.359 234.854 198.766 234.237 199.49C233.62 200.215 233.273 201.198 233.273 202.222V202.219Z" fill="#F44C45"/>
<path d="M219.948 211.763C220.494 213.8 225.208 218.55 225.208 218.55C225.208 218.55 226.773 211.489 226.23 209.452C225.969 208.474 225.388 207.657 224.614 207.183C223.841 206.708 222.938 206.613 222.105 206.92C221.272 207.226 220.577 207.909 220.172 208.817C219.768 209.725 219.687 210.785 219.948 211.763V211.763Z" fill="#F44C45"/>
<path d="M208.083 223.123C208.325 225.238 212.29 230.858 212.29 230.858C212.29 230.858 214.85 224.209 214.607 222.094C214.491 221.078 214.036 220.158 213.342 219.536C212.648 218.915 211.772 218.642 210.906 218.778C210.041 218.915 209.258 219.449 208.728 220.264C208.199 221.079 207.966 222.107 208.083 223.123Z" fill="#F44C45"/>
<path opacity="0.25" d="M249.37 197.105C248.066 198.594 241.99 200.128 241.99 200.128C241.99 200.128 243.48 193.045 244.784 191.56C245.41 190.846 246.253 190.453 247.125 190.468C247.998 190.484 248.83 190.905 249.438 191.64C250.047 192.376 250.381 193.364 250.368 194.389C250.355 195.414 249.996 196.391 249.37 197.105V197.105Z" fill="black"/>
<path opacity="0.25" d="M245.934 209.922C244.15 210.338 238.351 207.753 238.351 207.753C238.351 207.753 242.882 202.767 244.663 202.34C245.519 202.14 246.408 202.348 247.134 202.918C247.86 203.487 248.363 204.372 248.533 205.378C248.703 206.383 248.526 207.427 248.041 208.279C247.556 209.131 246.802 209.722 245.946 209.922H245.934Z" fill="black"/>
<path opacity="0.25" d="M233.422 223.789C231.702 223.077 227.798 217.414 227.798 217.414C227.798 217.414 233.865 215.791 235.575 216.489C235.993 216.646 236.379 216.9 236.711 217.235C237.044 217.571 237.316 217.98 237.512 218.441C237.707 218.901 237.823 219.403 237.851 219.916C237.88 220.43 237.82 220.945 237.677 221.431C237.534 221.917 237.309 222.365 237.016 222.748C236.723 223.131 236.368 223.441 235.972 223.661C235.575 223.881 235.146 224.005 234.708 224.027C234.27 224.049 233.833 223.968 233.422 223.789V223.789Z" fill="black"/>
<path opacity="0.25" d="M221.941 231.78C220.149 231.424 215.484 226.613 215.484 226.613C215.484 226.613 221.219 223.807 223.012 224.156C223.442 224.234 223.854 224.412 224.224 224.678C224.595 224.944 224.918 225.295 225.173 225.708C225.427 226.121 225.61 226.59 225.71 227.087C225.81 227.584 225.825 228.099 225.754 228.602C225.683 229.106 225.528 229.588 225.298 230.021C225.068 230.454 224.766 230.829 224.412 231.125C224.057 231.42 223.656 231.63 223.232 231.743C222.808 231.855 222.369 231.868 221.941 231.78V231.78Z" fill="black"/>
<path opacity="0.25" d="M233.273 202.219C233.273 204.356 236.561 210.541 236.561 210.541C236.561 210.541 239.855 204.356 239.855 202.222C239.855 201.198 239.508 200.215 238.891 199.49C238.274 198.766 237.437 198.359 236.564 198.359C235.691 198.359 234.854 198.766 234.237 199.49C233.62 200.215 233.273 201.198 233.273 202.222V202.219Z" fill="black"/>
<path opacity="0.25" d="M219.948 211.763C220.494 213.8 225.208 218.55 225.208 218.55C225.208 218.55 226.773 211.489 226.23 209.452C225.969 208.474 225.388 207.657 224.614 207.183C223.841 206.708 222.938 206.613 222.105 206.92C221.272 207.226 220.577 207.909 220.172 208.817C219.768 209.725 219.687 210.785 219.948 211.763V211.763Z" fill="black"/>
<path opacity="0.25" d="M208.083 223.123C208.325 225.238 212.29 230.858 212.29 230.858C212.29 230.858 214.85 224.209 214.607 222.094C214.491 221.078 214.036 220.158 213.342 219.536C212.648 218.915 211.772 218.642 210.906 218.778C210.041 218.915 209.258 219.449 208.728 220.264C208.199 221.079 207.966 222.107 208.083 223.123Z" fill="black"/>
<path d="M208.195 237.884C208.195 237.884 209.687 219.815 218.58 210.207C222.332 206.203 224.875 200.878 225.83 195.032C226.266 192.252 226.484 189.43 226.479 186.603" stroke="#535461" stroke-width="2" stroke-miterlimit="10"/>
<path d="M232.051 180.52C231.371 182.5 226.348 186.795 226.348 186.795C226.348 186.795 225.269 179.609 225.948 177.632C226.102 177.149 226.336 176.707 226.638 176.332C226.94 175.958 227.302 175.657 227.704 175.449C228.106 175.242 228.539 175.13 228.978 175.122C229.417 175.114 229.854 175.209 230.261 175.402C230.668 175.595 231.039 175.881 231.35 176.245C231.662 176.608 231.908 177.041 232.075 177.518C232.242 177.995 232.326 178.507 232.321 179.022C232.317 179.538 232.225 180.047 232.051 180.52V180.52Z" fill="#F44C45"/>
<path d="M233.334 193.871C231.848 195.1 225.642 195.499 225.642 195.499C225.642 195.499 228.068 188.779 229.545 187.55C229.899 187.258 230.298 187.051 230.72 186.94C231.141 186.829 231.578 186.816 232.004 186.903C232.429 186.99 232.837 187.175 233.202 187.447C233.567 187.718 233.883 188.072 234.132 188.487C234.38 188.902 234.557 189.37 234.651 189.866C234.746 190.361 234.757 190.873 234.682 191.373C234.608 191.873 234.451 192.351 234.22 192.78C233.988 193.208 233.687 193.579 233.334 193.871Z" fill="#F44C45"/>
<path d="M226.682 212.504C224.862 212.682 219.342 209.348 219.342 209.348C219.342 209.348 224.319 204.982 226.118 204.801C226.988 204.715 227.851 205.038 228.518 205.7C229.185 206.361 229.601 207.307 229.674 208.328C229.748 209.35 229.472 210.363 228.909 211.146C228.345 211.929 227.54 212.418 226.67 212.504H226.682Z" fill="#F44C45"/>
<path d="M218.944 225.27C217.185 225.805 211.258 223.618 211.258 223.618C211.258 223.618 215.532 218.323 217.291 217.788C217.713 217.649 218.153 217.61 218.588 217.674C219.022 217.737 219.441 217.902 219.821 218.158C220.2 218.414 220.533 218.756 220.798 219.165C221.064 219.574 221.257 220.04 221.367 220.538C221.477 221.035 221.501 221.553 221.438 222.062C221.376 222.57 221.227 223.059 221.002 223.5C220.776 223.94 220.478 224.323 220.125 224.627C219.771 224.93 219.37 225.148 218.944 225.267V225.27Z" fill="#F44C45"/>
<path d="M219.102 192.849C219.836 194.801 224.98 198.903 224.98 198.903C224.98 198.903 225.857 191.681 225.12 189.73C224.756 188.813 224.1 188.1 223.293 187.744C222.486 187.388 221.593 187.419 220.805 187.828C220.017 188.238 219.397 188.994 219.079 189.934C218.76 190.874 218.769 191.923 219.102 192.856V192.849Z" fill="#F44C45"/>
<path d="M210.215 207.917C211.413 209.519 217.364 211.62 217.364 211.62C217.364 211.62 216.36 204.42 215.159 202.817C214.876 202.426 214.53 202.105 214.141 201.873C213.751 201.64 213.326 201.501 212.89 201.464C212.454 201.426 212.017 201.491 211.603 201.654C211.188 201.817 210.806 202.076 210.478 202.414C210.149 202.753 209.882 203.165 209.691 203.626C209.499 204.087 209.388 204.589 209.364 205.101C209.339 205.613 209.402 206.126 209.548 206.609C209.694 207.093 209.921 207.537 210.215 207.917V207.917Z" fill="#F44C45"/>
<path d="M203.287 223.949C204.24 225.769 209.802 229.017 209.802 229.017C209.802 229.017 209.848 221.723 208.892 219.904C208.666 219.471 208.37 219.096 208.02 218.798C207.67 218.5 207.273 218.286 206.853 218.168C206.433 218.05 205.996 218.031 205.57 218.111C205.143 218.191 204.734 218.369 204.365 218.634C203.997 218.9 203.677 219.248 203.423 219.659C203.17 220.07 202.988 220.535 202.887 221.029C202.787 221.522 202.77 222.034 202.838 222.535C202.906 223.036 203.058 223.517 203.284 223.949H203.287Z" fill="#F44C45"/>
<path opacity="0.1" d="M113.493 296.996C133.407 296.996 149.551 293.819 149.551 289.899C149.551 285.979 133.407 282.802 113.493 282.802C93.5782 282.802 77.4342 285.979 77.4342 289.899C77.4342 293.819 93.5782 296.996 113.493 296.996Z" fill="#F44C45"/>
<path opacity="0.1" d="M184.466 242.514C204.381 242.514 220.525 239.336 220.525 235.416C220.525 231.496 204.381 228.319 184.466 228.319C164.552 228.319 148.408 231.496 148.408 235.416C148.408 239.336 164.552 242.514 184.466 242.514Z" fill="#F44C45"/>
<path d="M186.859 141.746L186.826 143.131L184.776 228.073H181.33L183.019 143.131L183.053 141.533L186.859 141.746Z" fill="#B77B7F"/>
<path d="M206.809 213.704L204.227 213.697L165.876 213.6L163.831 213.597L164.92 209.658H206.536L206.809 213.704Z" fill="#DDA2A6"/>
<path opacity="0.1" d="M186.859 141.746L186.826 143.132H183.019L183.053 141.533L186.859 141.746Z" fill="black"/>
<path d="M188.312 139.67H181.921V142.494H188.312V139.67Z" fill="#B77B7F"/>
<path opacity="0.1" d="M166.215 209.658L165.876 213.6L163.831 213.597L164.92 209.658H166.215Z" fill="black"/>
<path d="M171.721 139.617L171.615 140.842L163.107 239.359L159.209 239.141L168.175 140.842L168.275 139.723L171.721 139.617Z" fill="#DDA2A6"/>
<path opacity="0.1" d="M206.809 213.704L204.227 213.697L203.879 209.658H206.536L206.809 213.704Z" fill="black"/>
<path d="M210.888 239.141L206.988 239.359L198.482 140.842L198.376 139.617L201.819 139.723L201.919 140.842L210.888 239.141Z" fill="#DDA2A6"/>
<path d="M227.477 42.485H141.528V139.243H227.477V42.485Z" fill="white"/>
<path d="M186.18 10.1245V33.4895H182.828V10.1245C182.819 9.85905 182.855 9.59408 182.935 9.34552C183.015 9.09696 183.136 8.86995 183.293 8.67814C183.45 8.48634 183.638 8.3337 183.846 8.22943C184.054 8.12516 184.278 8.07141 184.504 8.07141C184.73 8.07141 184.954 8.12516 185.162 8.22943C185.37 8.3337 185.558 8.48634 185.715 8.67814C185.872 8.86995 185.993 9.09696 186.073 9.34552C186.153 9.59408 186.189 9.85905 186.18 10.1245V10.1245Z" fill="#DDA2A6"/>
<path opacity="0.1" d="M186.18 31.3634H182.825V33.4895H186.18V31.3634Z" fill="black"/>
<path d="M187.496 32.9589V40.6724H181.53V32.9589C181.53 32.8329 181.55 32.7082 181.591 32.5917C181.632 32.4753 181.692 32.3695 181.768 32.2804C181.844 32.1914 181.934 32.1208 182.033 32.0729C182.132 32.0249 182.239 32.0004 182.346 32.0009H186.686C186.902 32.0028 187.108 32.1045 187.26 32.284C187.411 32.4634 187.496 32.706 187.496 32.9589Z" fill="#DDA2A6"/>
<path opacity="0.1" d="M184.503 38.3861C185.203 38.3861 185.77 37.7197 185.77 36.8975C185.77 36.0754 185.203 35.409 184.503 35.409C183.802 35.409 183.235 36.0754 183.235 36.8975C183.235 37.7197 183.802 38.3861 184.503 38.3861Z" fill="black"/>
<path d="M184.503 38.0656C185.203 38.0656 185.77 37.3991 185.77 36.577C185.77 35.7549 185.203 35.0884 184.503 35.0884C183.802 35.0884 183.235 35.7549 183.235 36.577C183.235 37.3991 183.802 38.0656 184.503 38.0656Z" fill="#B77B7F"/>
<path opacity="0.1" d="M187.496 39.718H181.512V40.6759H187.496V39.718Z" fill="black"/>
<path opacity="0.1" d="M189.944 40.9965H179.064V43.1261H189.944V40.9965Z" fill="black"/>
<path d="M189.944 40.3555H179.064V42.4851H189.944V40.3555Z" fill="#DDA2A6"/>
<path opacity="0.1" d="M162.494 136.75H208.189C208.712 136.75 209.213 136.994 209.583 137.428C209.953 137.862 210.16 138.451 210.16 139.065V139.57H160.522V139.065C160.522 138.451 160.73 137.862 161.1 137.428C161.469 136.994 161.971 136.75 162.494 136.75V136.75Z" fill="black"/>
<path opacity="0.1" d="M168.275 139.723L171.721 139.617L171.615 140.842H168.175L168.275 139.723Z" fill="black"/>
<path opacity="0.1" d="M188.312 139.67H181.921V140.842H188.312V139.67Z" fill="black"/>
<path opacity="0.1" d="M201.919 140.842H198.482L198.376 139.617L201.819 139.723L201.919 140.842Z" fill="black"/>
<path d="M162.494 137.38H208.189C208.712 137.38 209.213 137.624 209.583 138.058C209.953 138.492 210.16 139.081 210.16 139.695V140.201H160.522V139.695C160.522 139.081 160.73 138.492 161.1 138.058C161.469 137.624 161.971 137.38 162.494 137.38V137.38Z" fill="#DDA2A6"/>
<path d="M152.475 92.4593C151.787 92.0319 144.286 85.3796 144.286 85.3796L132.18 76.3662C132.18 76.3662 132.116 76.1526 132.001 75.7858C135.323 71.3592 134.598 64.9348 131.219 60.4192C127.124 54.9421 108.621 43.151 103.046 53.2363C102.267 54.6608 102.24 56.2775 102.036 57.8445C101.56 61.5018 100.025 65.0452 97.617 68.0295C95.7607 70.3336 93.3251 72.456 92.2574 75.0628C92.2574 75.0308 92.2361 74.9987 92.227 74.9631C91.9693 75.5218 91.7823 76.1217 91.672 76.7437C91.1412 79.9239 92.9611 82.9722 93.9287 86.0669C94.2534 87.1149 94.4892 88.198 94.6324 89.3005C94.6566 89.0797 94.6779 88.8625 94.6991 88.6417C94.9349 90.2114 95.0153 91.808 94.9387 93.3994C88.2202 95.0055 88.2172 108.499 88.2172 108.499C88.2172 108.499 87.3891 113.862 87.5286 115.796C87.6682 117.73 87.6651 121.91 87.6651 122.918C87.6651 123.926 86.8371 130.211 86.7552 130.966C86.756 130.977 86.756 130.988 86.7552 130.999C86.6338 131.825 85.3751 135.806 88.4174 136.696C88.6297 136.761 88.8541 136.814 89.0877 136.864C89.2181 140.087 89.4547 146.835 89.2454 148.338C89.2454 148.338 90.3525 157.405 91.2716 159.709C91.8528 161.06 92.5327 162.349 93.3038 163.562C93.2371 164.114 93.0784 164.645 92.8367 165.125C92.3666 165.92 92.6092 166.571 93.3948 166.853C93.3675 167.127 93.3372 167.437 93.3038 167.786C92.9671 171.283 92.4636 178.234 93.319 181.756C94.4928 186.585 94.5626 188.195 94.5626 188.195C94.5626 188.195 94.5626 189.641 95.0479 190.446C95.5332 191.25 96.428 198.736 96.428 199.943C96.428 201.15 98.7757 212.012 98.0841 214.587C97.3926 217.162 97.9476 220.783 97.9476 220.783C97.9476 220.783 97.5321 227.14 97.0377 228.508C96.5433 229.875 96.3461 251.922 97.1044 257.635C97.8627 263.347 98.348 268.094 98.348 268.094C98.348 268.094 97.8657 273.325 98.2782 274.048C98.6908 274.771 99.4521 279.119 98.9 279.358C98.348 279.596 98.072 281.37 98.072 281.37C98.3639 281.891 98.6788 282.394 99.0153 282.876C98.8025 282.789 98.5948 282.686 98.3935 282.566C98.6119 282.923 98.9395 283.428 99.3429 283.991L98.9637 289.778C98.9478 290.004 98.9998 290.229 99.1106 290.414C99.2215 290.6 99.3841 290.734 99.5704 290.793C100.782 291.179 102.059 291.173 103.268 290.774C104.476 290.375 105.569 289.599 106.431 288.528C109.883 284.425 111.057 284.988 111.679 282.495C111.746 282.228 111.803 281.965 111.852 281.715C112.298 279.493 110.281 277.841 108.676 278.788C108.897 277.029 109.07 275.031 108.903 273.902C108.558 271.57 108.627 265.455 108.627 265.455L108.145 236.164C108.145 236.164 109.04 230.37 110.077 228.119C111.115 225.869 110.987 217.981 110.987 217.981L112.161 192.069L113.265 179.438C113.265 179.438 114.369 175.093 115.749 179.922C115.749 179.922 114.991 189.655 115.337 191.991C115.683 194.327 116.165 205.67 115.819 208.162C115.473 210.655 113.957 224.337 114.909 227.795C115.862 231.253 116.923 235.445 116.711 236.816C116.499 238.187 115.801 267.873 115.801 267.873C115.801 267.873 117.666 273.571 116.286 275.437C114.906 277.303 116.217 284.696 116.217 284.696C116.217 284.696 116.383 284.835 116.668 285.027L116.629 285.643L116.195 292.299C116.18 292.525 116.232 292.751 116.343 292.937C116.453 293.122 116.616 293.257 116.802 293.318C118.013 293.705 119.291 293.698 120.499 293.299C121.708 292.901 122.801 292.124 123.663 291.053C127.115 286.947 128.289 287.513 128.91 285.017C128.977 284.749 129.035 284.49 129.086 284.237C129.572 281.811 127.115 280.052 125.471 281.637L125.389 281.719C125.303 281.805 125.213 281.884 125.119 281.958C125.075 281.995 125.03 282.03 124.982 282.061C125.328 280.223 125.832 277.075 125.589 275.601C125.243 273.428 125.932 266.833 125.932 266.833C125.932 266.833 127.934 258.945 128.003 255.793L128.555 230.691C128.555 230.691 128.489 220.47 128.765 217.977C129.041 215.484 131.249 193.918 133.457 187.479C135.153 182.55 135.911 169.972 135.462 163.594C135.438 163.281 135.414 162.978 135.383 162.697C138.092 160.35 138.362 156.447 138.362 156.447C138.362 156.447 135.875 150.87 133.481 148.509C131.088 146.148 130.573 142.088 130.657 140.361C130.698 139.308 130.403 138.276 129.829 137.466C129.829 137.466 128.725 133.281 127.988 132.854C127.928 132.818 127.874 132.77 127.828 132.711C127.327 132.081 127.712 130.279 127.712 130.279V130.222C127.8 129.806 128.319 127.106 128.164 126.415C127.979 125.667 128.255 122.124 128.255 122.124C128.255 122.124 130.005 116.009 129.729 111.18C129.453 106.351 133.321 106.782 133.321 106.782L145.262 106.636H146.621C147.1 106.159 147.538 105.627 147.928 105.048C150.203 104.731 154.805 103.723 155.32 100.775C156.021 96.8609 153.167 92.8902 152.475 92.4593ZM97.1499 137.102L97.2318 134.649C97.5139 134.934 97.7019 135.115 97.7019 135.115C97.8542 135.757 97.8615 136.435 97.7232 137.081C97.6491 137.385 97.5176 137.665 97.3385 137.9C97.1594 138.136 96.9374 138.321 96.6889 138.441C96.6311 138.471 96.5754 138.505 96.522 138.545L96.4068 137.159L97.1499 137.102ZM140.464 94.0119C139.957 93.7449 138.253 93.7983 137.376 93.7983C136.499 93.7983 135.077 92.94 135.077 92.94C134.774 92.2456 133.096 91.8325 131.604 91.5975C130.469 88.314 128.874 85.1125 128.659 81.6902C128.659 81.5656 128.659 81.4409 128.643 81.3163L128.816 81.6724C128.816 81.6724 135.768 86.8789 136.551 88.4387C137.158 89.6281 140.079 92.2848 141.431 93.4742C141.245 93.7595 140.984 93.9648 140.688 94.0582C140.611 94.0681 140.533 94.052 140.464 94.0119V94.0119Z" fill="url(#paint0_linear_19:23)"/>
<path d="M128.983 284.258C128.932 284.507 128.877 284.767 128.81 285.031C128.204 287.524 127.042 286.947 123.654 291.017C122.81 292.08 121.734 292.851 120.543 293.248C119.353 293.644 118.093 293.651 116.899 293.268C116.713 293.21 116.55 293.077 116.439 292.892C116.328 292.707 116.276 292.482 116.292 292.256L116.72 285.654L116.923 282.477C116.923 282.477 122.334 284.258 125.089 281.997C125.181 281.923 125.27 281.843 125.355 281.758C125.377 281.736 125.397 281.712 125.416 281.687C125.772 281.341 126.21 281.135 126.671 281.097C127.131 281.059 127.59 281.191 127.983 281.474C128.376 281.758 128.684 282.179 128.864 282.678C129.043 283.177 129.085 283.73 128.983 284.258V284.258Z" fill="#67647E"/>
<path d="M111.997 281.765C111.946 282.014 111.891 282.274 111.824 282.538C111.218 285.031 110.056 284.454 106.668 288.524C105.824 289.587 104.748 290.358 103.558 290.755C102.367 291.151 101.107 291.158 99.9131 290.775C99.7268 290.717 99.5638 290.584 99.4528 290.399C99.3419 290.214 99.29 289.989 99.3064 289.764L99.7341 283.161L99.9373 279.985C99.9373 279.985 105.349 281.765 108.103 279.504C108.195 279.43 108.284 279.35 108.37 279.265C108.391 279.243 108.411 279.219 108.43 279.194C108.786 278.849 109.224 278.642 109.685 278.604C110.145 278.566 110.604 278.698 110.997 278.981C111.39 279.265 111.698 279.686 111.878 280.185C112.057 280.684 112.099 281.237 111.997 281.765V281.765Z" fill="#67647E"/>
<path opacity="0.1" d="M106.407 282.755L106.626 286.188C103.52 289.831 99.8221 284.408 98.7393 282.627C101.587 284.351 106.407 282.755 106.407 282.755Z" fill="black"/>
<path opacity="0.1" d="M124.664 284.151L125.07 283.834C122.234 288.898 118.021 286.562 116.708 285.654L116.911 282.477C116.911 282.477 122.322 284.258 125.076 281.997C124.861 283.236 124.664 284.151 124.664 284.151Z" fill="black"/>
<path d="M133.302 188.273C131.125 194.658 128.95 216.05 128.677 218.543C128.404 221.036 128.474 231.157 128.474 231.157L127.928 256.046C127.858 259.162 125.886 266.986 125.886 266.986C125.886 266.986 125.207 273.532 125.547 275.686C125.886 277.841 124.664 283.521 124.664 283.521L125.07 283.2C121.67 289.254 116.298 284.717 116.298 284.717C116.298 284.717 115.006 277.374 116.368 275.537C117.73 273.699 115.892 268.033 115.892 268.033C115.892 268.033 116.571 238.575 116.775 237.218C116.978 235.861 115.959 231.709 115.006 228.276C114.054 224.843 115.552 211.271 115.892 208.796C116.232 206.321 115.755 195.064 115.416 192.75C115.076 190.435 115.822 180.773 115.822 180.773C114.463 175.983 113.374 180.296 113.374 180.296L112.285 192.828L111.13 218.536C111.13 218.536 111.266 226.371 110.247 228.597C109.228 230.822 108.342 236.577 108.342 236.577L108.819 265.64C108.819 265.64 108.752 271.694 109.092 274.02C109.431 276.345 108.342 282.324 108.342 282.324C104.536 292.855 98.4208 281.438 98.4208 281.438C98.4208 281.438 98.6938 279.682 99.2367 279.443C99.7797 279.205 99.0335 274.892 98.6301 274.173C98.2267 273.453 98.6968 268.265 98.6968 268.265C98.6968 268.265 98.2206 263.557 97.4835 257.887C96.7465 252.218 96.9406 230.345 97.4168 228.988C97.893 227.631 98.2995 221.325 98.2995 221.325C98.2995 221.325 97.7565 217.731 98.4359 215.174C99.1154 212.617 96.8041 201.845 96.8041 200.645C96.8041 199.445 95.9214 192.023 95.4452 191.225C94.969 190.428 94.969 188.989 94.969 188.989C94.969 188.989 94.9023 187.394 93.7557 182.604C92.9125 179.107 93.41 172.212 93.7406 168.74C93.8589 167.454 93.962 166.635 93.962 166.635C93.962 166.635 132.96 159.21 134.516 160.888C134.88 161.283 135.122 162.64 135.265 164.573C135.729 170.898 134.965 183.398 133.302 188.273Z" fill="#444053"/>
<path opacity="0.1" d="M118.543 224.17C118.725 224.17 123.032 224.597 124.609 224.223C126.186 223.85 118.543 224.17 118.543 224.17Z" fill="black"/>
<path opacity="0.1" d="M118.861 227.151C118.861 227.151 124.81 228.376 125.113 227.738C125.416 227.101 118.861 227.151 118.861 227.151Z" fill="black"/>
<path opacity="0.1" d="M100.684 225.872C100.684 225.872 103.765 226.033 105.443 226.941C107.12 227.849 100.684 225.872 100.684 225.872Z" fill="black"/>
<path d="M89.485 136.355C89.485 136.355 89.9824 147.476 89.7125 149.445C89.7125 149.445 90.7983 158.441 91.7053 160.727C92.6122 163.014 94.5625 165.891 94.5625 165.891L97.2378 143.812L96.6008 136.248L89.485 136.355Z" fill="#EFB7B9"/>
<path d="M117.591 85.6859C123.373 85.6859 128.061 80.182 128.061 73.3926C128.061 66.6033 123.373 61.0994 117.591 61.0994C111.808 61.0994 107.12 66.6033 107.12 73.3926C107.12 80.182 111.808 85.6859 117.591 85.6859Z" fill="#EFB7B9"/>
<path d="M112.152 79.1369C112.152 79.1369 108.888 86.6439 105.625 90.1552C102.361 93.6665 125.207 97.6586 125.75 97.6586C126.293 97.6586 121.67 81.6938 122.486 79.7672C123.302 77.8406 112.152 79.1369 112.152 79.1369Z" fill="#EFB7B9"/>
<path opacity="0.1" d="M135.271 164.573C134.758 165.033 134.192 165.405 133.591 165.677C129.423 167.593 124.888 170.254 121.807 169.192C118.725 168.131 112.198 169.192 112.198 169.192C112.198 169.192 99.0486 167.914 96.4249 168.658C95.2299 168.996 94.3017 168.982 93.6951 168.74C93.8134 167.454 93.9165 166.635 93.9165 166.635C93.9165 166.635 132.96 159.21 134.516 160.888C134.886 161.283 135.122 162.64 135.271 164.573Z" fill="black"/>
<path d="M138.125 157.48C138.125 157.48 137.764 162.804 133.591 164.719C129.417 166.635 124.888 169.296 121.807 168.234C118.725 167.173 112.198 168.234 112.198 168.234C112.198 168.234 99.0487 166.956 96.425 167.7C93.8013 168.444 92.4333 167.49 93.2492 166.105C94.0651 164.719 93.9772 160.143 93.9772 158.227C93.9772 156.312 93.0672 148.541 93.8831 147.156C94.6991 145.77 95.424 140.45 97.0559 139.595C97.3009 139.474 97.5197 139.29 97.6961 139.056C97.8724 138.823 98.0019 138.546 98.075 138.246C98.2099 137.605 98.2026 136.934 98.0538 136.298C98.0538 136.298 97.7778 136.03 97.3986 135.635C96.4371 134.627 94.8113 132.758 95.333 132.145C96.0579 131.291 95.333 125.756 95.333 125.756C95.333 125.756 93.6102 121.501 94.2471 119.905C94.8841 118.31 88.7146 109.898 88.7146 109.898C88.7146 109.898 88.7146 95.4258 96.1489 94.7847C96.1489 94.7847 101.408 94.9984 102.042 92.2314C102.676 89.4643 106.847 87.8653 106.847 87.8653L116.368 90.3154C116.368 90.3154 124.797 92.4522 126.341 91.1666C127.885 89.881 129.071 92.8688 129.071 92.8688C129.071 92.8688 134.328 93.1893 134.871 94.4678C135.414 95.7463 133.151 108.196 133.151 108.196C133.151 108.196 129.341 107.772 129.614 112.562C129.887 117.352 128.146 123.42 128.146 123.42C128.146 123.42 127.873 126.932 128.055 127.676C128.225 128.363 127.697 131.041 127.612 131.454V131.508C127.612 131.508 127.233 133.288 127.724 133.922C127.77 133.98 127.823 134.028 127.882 134.065C128.61 134.489 129.702 138.641 129.702 138.641C130.268 139.447 130.559 140.471 130.518 141.515C130.43 143.221 130.973 147.262 133.33 149.606C135.687 151.949 138.125 157.48 138.125 157.48Z" fill="#A36468"/>
<path d="M97.6897 132.829V133.281L97.5259 138.267C97.5259 138.267 91.9479 138.798 88.9117 137.911C85.8755 137.024 87.1525 133.068 87.2738 132.249C87.2749 132.238 87.2749 132.227 87.2738 132.216C87.3618 131.469 88.1837 125.244 88.1837 124.232C88.1837 123.221 88.1837 119.069 88.0472 117.153C87.9108 115.237 88.7146 109.898 88.7146 109.898L89.303 109.051L95.6909 111.925L97.6897 132.829Z" fill="#A36468"/>
<path opacity="0.1" d="M97.6746 133.292L97.5108 138.278C97.5108 138.278 91.9328 138.808 88.8966 137.921C85.8604 137.035 87.1373 133.078 87.2587 132.259L97.6746 133.292Z" fill="black"/>
<path opacity="0.1" d="M98.0751 138.249C98.21 137.608 98.2027 136.938 98.0539 136.301C98.0539 136.301 97.7778 136.034 97.3987 135.639C102.2 134.852 121.215 131.789 127.618 131.454V131.508C127.618 131.508 127.239 133.288 127.731 133.922L98.0751 138.249Z" fill="black"/>
<path opacity="0.1" d="M128.334 142.088C128.334 142.088 129.514 149.923 125.116 152.679C125.113 152.693 127.609 148.808 128.334 142.088Z" fill="black"/>
<path opacity="0.1" d="M99.5491 152.903C99.5491 152.903 110.165 150.767 112.243 152.426C114.321 154.086 99.5491 152.903 99.5491 152.903Z" fill="black"/>
<path opacity="0.1" d="M124.664 104.418C124.664 104.418 123.032 112.295 124.254 114.104C125.477 115.913 124.664 104.418 124.664 104.418Z" fill="black"/>
<path opacity="0.1" d="M93.9287 97.9791C93.9287 97.9791 95.4241 100.906 94.5172 103.941C93.6102 106.975 93.9287 97.9791 93.9287 97.9791Z" fill="black"/>
<path opacity="0.1" d="M90.8379 123.634C90.8379 123.634 92.7427 124.962 92.1088 127.038C91.4749 129.115 90.8379 123.634 90.8379 123.634Z" fill="black"/>
<path opacity="0.1" d="M90.6649 117.566C90.6649 117.566 92.4302 118.684 92.6577 120.333C92.8852 121.982 90.6649 117.566 90.6649 117.566Z" fill="black"/>
<path opacity="0.1" d="M116.866 181.218C116.866 181.218 127.973 182.55 130.193 179.463C130.193 179.481 120.175 181.806 116.866 181.218Z" fill="black"/>
<path opacity="0.1" d="M97.6897 180.474C97.6897 180.474 109.613 183.775 111.97 181.165C111.97 181.165 101.724 182.07 97.6897 180.474Z" fill="black"/>
<path opacity="0.1" d="M117.727 185.535C117.727 185.535 122.714 185.535 125.025 185.695C127.336 185.855 117.727 185.535 117.727 185.535Z" fill="black"/>
<path opacity="0.1" d="M98.5057 188.027C98.5057 188.027 100.954 191.275 103.72 190.691C106.486 190.107 98.5057 188.027 98.5057 188.027Z" fill="black"/>
<path d="M103.313 55.0703C102.546 56.4699 102.519 58.0902 102.318 59.6429C101.851 63.2717 100.338 66.7866 97.9689 69.7495C95.7941 72.4632 92.8125 74.924 92.2483 78.2394C91.7144 81.3875 93.5253 84.4181 94.4746 87.4985C96.977 95.5789 93.4828 104.055 92.4636 112.395C92.1815 114.699 92.5213 117.644 94.9387 118.41C95.694 118.652 96.5584 118.62 97.2379 119.004C98.1478 119.517 98.4269 120.582 98.5937 121.54C99.2021 124.967 99.4123 128.474 99.2185 131.967C99.1093 133.926 98.988 136.18 100.565 137.526C101.281 138.142 102.246 138.456 103.177 138.751C105.661 139.538 108.873 140.176 110.547 138.327C111.251 137.555 111.515 136.465 112.392 135.852C113.705 134.937 115.567 135.557 117.22 135.653C120.615 135.852 123.733 133.516 125.07 130.699C126.408 127.882 126.284 124.645 125.798 121.608C125.313 118.57 124.446 115.554 124.385 112.47C124.364 111.401 124.446 110.315 124.967 109.368C125.977 107.534 128.328 106.7 129.936 105.258C132.948 102.552 132.938 98.118 131.843 94.4072C130.748 90.6965 128.783 87.1389 128.54 83.3034C128.432 82.3763 128.589 81.4331 128.986 80.6219C129.417 79.842 130.169 79.2579 130.806 78.6134C135.201 74.2545 134.683 67.0965 131.049 62.1963C127.027 56.7654 108.803 45.0669 103.313 55.0703Z" fill="#E3787D"/>
<g opacity="0.1">
<path opacity="0.1" d="M95.0327 90.8532C95.3755 87.616 95.3118 84.4074 94.3382 81.2557C93.8589 79.7102 93.1643 78.1753 92.6578 76.6262C92.4047 77.1863 92.2209 77.7859 92.1118 78.4068C91.578 81.5549 93.3888 84.5855 94.3382 87.6659C94.6577 88.6991 94.8904 89.7667 95.0327 90.8532Z" fill="black"/>
<path opacity="0.1" d="M99.082 125.724C99.2753 122.232 99.0661 118.724 98.4602 115.297C98.2903 114.339 98.0113 113.278 97.1013 112.765C96.4219 112.381 95.5574 112.409 94.8022 112.17C94.3381 112.04 93.9056 111.787 93.5377 111.43C93.1697 111.073 92.876 110.622 92.6789 110.112C92.5394 110.924 92.4181 111.732 92.318 112.544C92.0359 114.849 92.3756 117.794 94.7931 118.559C95.5483 118.798 96.4128 118.766 97.0922 119.15C98.0022 119.663 98.2812 120.728 98.4511 121.686C98.7293 123.275 98.9238 124.883 99.0335 126.501C99.0547 126.237 99.0668 125.981 99.082 125.724Z" fill="black"/>
<path opacity="0.1" d="M124.937 124.46C123.596 127.288 120.478 129.613 117.084 129.414C115.431 129.314 113.568 128.702 112.258 129.613C111.382 130.222 111.115 131.315 110.411 132.088C108.737 133.922 105.524 133.299 103.04 132.512C102.109 132.213 101.148 131.903 100.429 131.287C99.7436 130.695 99.2814 129.814 99.1396 128.83C99.1578 129.923 99.1396 131.02 99.082 132.113C98.9728 134.072 98.8515 136.326 100.429 137.676C101.148 138.288 102.109 138.602 103.04 138.897C105.524 139.684 108.737 140.322 110.411 138.473C111.115 137.701 111.382 136.611 112.258 135.981C113.568 135.065 115.431 135.685 117.084 135.781C120.478 135.981 123.596 133.644 124.937 130.828C126.223 128.107 126.165 125.03 125.716 122.092C125.547 122.919 125.285 123.715 124.937 124.46Z" fill="black"/>
<path opacity="0.1" d="M130.682 72.3884C130.033 73.0294 129.28 73.617 128.862 74.3969C128.464 75.2082 128.308 76.1513 128.416 77.0785C128.504 78.2438 128.714 79.392 129.041 80.4972C129.546 79.8647 130.099 79.2878 130.694 78.7736C133.666 75.8285 134.388 71.6014 133.424 67.6556C132.915 69.509 131.963 71.1518 130.682 72.3884V72.3884Z" fill="black"/>
<path opacity="0.1" d="M129.799 99.0154C128.195 100.458 125.841 101.295 124.834 103.129C124.309 104.076 124.227 105.169 124.248 106.227C124.286 107.472 124.416 108.712 124.637 109.93C124.694 109.786 124.76 109.647 124.834 109.514C125.841 107.68 128.195 106.846 129.799 105.404C132.55 102.933 132.781 99.0226 131.968 95.5361C131.555 96.9231 130.8 98.1344 129.799 99.0154V99.0154Z" fill="black"/>
</g>
<path d="M146.284 106.601C146.284 106.601 154.128 106.124 154.808 102.238C155.487 98.3531 152.684 94.4037 151.999 93.987C151.313 93.5704 143.919 86.9608 143.919 86.9608L131.998 78.0222C131.998 78.0222 126.287 58.7918 125.022 66.1527C123.757 73.5137 128.695 83.2892 128.695 83.2892C128.695 83.2892 135.538 88.4529 136.308 89.9949C137.079 91.5369 141.795 95.5825 141.795 95.5825L146.284 106.601Z" fill="#EFB7B9"/>
<path d="M150.501 100.319C148.644 105.856 146.239 108.039 146.239 108.039H144.901L133.142 108.182L131.786 103.834L133.691 94.4108L134.868 94.4678C134.868 94.4678 136.275 95.3189 137.133 95.3189C137.992 95.3189 139.675 95.2655 140.167 95.529C140.235 95.5684 140.313 95.582 140.388 95.5682C140.834 95.5148 141.298 94.7313 141.298 94.7313C141.298 94.7313 152.36 94.7847 150.501 100.319Z" fill="#A36468"/>
<path opacity="0.1" d="M150.501 100.319C148.644 105.856 146.239 108.04 146.239 108.04H144.901C145.599 105.846 147.07 101.344 147.631 100.305C148.18 99.3217 143.254 96.8751 140.373 95.5539C140.819 95.5005 141.283 94.7171 141.283 94.7171C141.283 94.7171 152.36 94.7847 150.501 100.319Z" fill="black"/>
<path opacity="0.1" d="M27.5473 274.846C34.9483 274.846 40.948 273.468 40.948 271.769C40.948 270.07 34.9483 268.692 27.5473 268.692C20.1464 268.692 14.1467 270.07 14.1467 271.769C14.1467 273.468 20.1464 274.846 27.5473 274.846Z" fill="#F44C45"/>
<path opacity="0.1" d="M250.929 253.714C256.32 253.714 260.69 252.711 260.69 251.474C260.69 250.237 256.32 249.234 250.929 249.234C245.539 249.234 241.168 250.237 241.168 251.474C241.168 252.711 245.539 253.714 250.929 253.714Z" fill="#F44C45"/>
<path opacity="0.1" d="M293.239 262.791C298.63 262.791 303 261.788 303 260.551C303 259.314 298.63 258.311 293.239 258.311C287.848 258.311 283.478 259.314 283.478 260.551C283.478 261.788 287.848 262.791 293.239 262.791Z" fill="#F44C45"/>
<path opacity="0.1" d="M227.725 281.487C233.116 281.487 237.486 280.485 237.486 279.247C237.486 278.01 233.116 277.007 227.725 277.007C222.335 277.007 217.965 278.01 217.965 279.247C217.965 280.485 222.335 281.487 227.725 281.487Z" fill="#F44C45"/>
<path d="M40.2109 186.357C40.2109 186.357 42.407 189.73 39.1978 194.815C35.9887 199.9 33.3468 204.195 34.4206 207.368C34.4206 207.368 39.2585 197.92 43.1986 197.789C47.1387 197.657 44.5453 192.041 40.2109 186.357Z" fill="#F44C45"/>
<path opacity="0.1" d="M40.211 186.357C40.4031 186.687 40.5543 187.046 40.6599 187.426C44.503 192.728 46.5503 197.675 42.8559 197.799C39.4163 197.913 35.2881 205.139 34.2993 206.962C34.331 207.104 34.3705 207.243 34.4176 207.379C34.4176 207.379 39.2555 197.931 43.1956 197.799C47.1358 197.668 44.5454 192.041 40.211 186.357Z" fill="black"/>
<path d="M44.2906 190.652C44.2906 191.838 44.1784 192.789 44.0388 192.789C43.8993 192.789 43.7841 191.827 43.7841 190.652C43.7841 189.477 43.9266 190.025 44.0661 190.025C44.2057 190.025 44.2906 189.452 44.2906 190.652Z" fill="#FFD037"/>
<path d="M45.6919 192.069C44.8062 192.636 44.0327 192.981 43.966 192.835C43.8993 192.689 44.5726 192.123 45.4492 191.546C46.3258 190.969 45.9861 191.393 46.0559 191.546C46.1256 191.699 46.5776 191.5 45.6919 192.069Z" fill="#FFD037"/>
<path d="M28.6211 186.357C28.6211 186.357 26.4251 189.73 29.6342 194.815C32.8433 199.9 35.4852 204.195 34.4205 207.368C34.4205 207.368 29.5674 197.92 25.6243 197.789C21.6812 197.657 24.2867 192.041 28.6211 186.357Z" fill="#F44C45"/>
<path opacity="0.1" d="M28.6211 186.357C28.429 186.687 28.2778 187.046 28.1722 187.426C24.3291 192.728 22.2817 197.675 25.9762 197.799C29.4158 197.913 33.5591 205.139 34.5328 206.962C34.5008 207.104 34.4623 207.243 34.4175 207.379C34.4175 207.379 29.5644 197.931 25.6213 197.799C21.6781 197.668 24.2867 192.041 28.6211 186.357Z" fill="black"/>
<path d="M24.5415 190.652C24.5415 191.838 24.6537 192.789 24.7933 192.789C24.9328 192.789 25.048 191.827 25.048 190.652C25.048 189.477 24.9055 190.025 24.766 190.025C24.6264 190.025 24.5415 189.452 24.5415 190.652Z" fill="#FFD037"/>
<path d="M23.1401 192.069C24.0289 192.636 24.7993 192.981 24.8691 192.835C24.9388 192.689 24.2624 192.123 23.3828 191.546C22.5032 190.969 22.8459 191.393 22.7762 191.546C22.7064 191.699 22.2545 191.5 23.1401 192.069Z" fill="#FFD037"/>
<path opacity="0.1" d="M34.4145 233.144C47.0873 233.144 57.3606 231.293 57.3606 229.01C57.3606 226.726 47.0873 224.875 34.4145 224.875C21.7418 224.875 11.4685 226.726 11.4685 229.01C11.4685 231.293 21.7418 233.144 34.4145 233.144Z" fill="#F44C45"/>
<path d="M46.2257 202.828L46.1165 203.896L45.9618 205.381L45.8981 206.001L45.7435 207.489L45.6767 208.109L45.522 209.594L43.7689 226.488C43.6111 227.998 41.5122 229.173 38.9764 229.173H29.8708C27.3351 229.173 25.2391 227.998 25.0814 226.488L23.3252 209.59L23.1705 208.105L23.1068 207.486L22.9491 205.997L22.8854 205.378L22.7307 203.893L22.6215 202.824C22.5335 201.97 23.6679 201.25 25.1026 201.25H43.7628C45.1793 201.254 46.3167 201.973 46.2257 202.828Z" fill="#65617D"/>
<path d="M46.1136 203.878L45.9619 205.367H22.8672L22.7156 203.878H46.1136Z" fill="#9D9CB5"/>
<path d="M45.8952 205.987L45.7435 207.472H23.0887L22.934 205.987H45.8952Z" fill="#9D9CB5"/>
<path d="M45.6768 208.091L45.5221 209.576H23.307L23.1523 208.091H45.6768Z" fill="#9D9CB5"/>
<path opacity="0.1" d="M54.5943 55.5617C59.8711 55.5617 64.1489 50.5394 64.1489 44.344C64.1489 38.1486 59.8711 33.1262 54.5943 33.1262C49.3175 33.1262 45.0398 38.1486 45.0398 44.344C45.0398 50.5394 49.3175 55.5617 54.5943 55.5617Z" fill="#F44C45"/>
<path opacity="0.1" d="M34.5752 24.5793C37.8418 24.5793 40.4899 21.4703 40.4899 17.635C40.4899 13.7998 37.8418 10.6907 34.5752 10.6907C31.3086 10.6907 28.6605 13.7998 28.6605 17.635C28.6605 21.4703 31.3086 24.5793 34.5752 24.5793Z" fill="#F44C45"/>
<path opacity="0.1" d="M3.63982 37.3996C5.65004 37.3996 7.27964 35.4864 7.27964 33.1262C7.27964 30.7661 5.65004 28.8528 3.63982 28.8528C1.6296 28.8528 0 30.7661 0 33.1262C0 35.4864 1.6296 37.3996 3.63982 37.3996Z" fill="#F44C45"/>
</g>
<defs>
<linearGradient id="paint0_linear_19:23" x1="120.909" y1="293.588" x2="120.909" y2="49.2905" gradientUnits="userSpaceOnUse">
<stop stop-color="#808080" stop-opacity="0.25"/>
<stop offset="0.54" stop-color="#808080" stop-opacity="0.12"/>
<stop offset="1" stop-color="#808080" stop-opacity="0.1"/>
</linearGradient>
<clipPath id="clip0_19:23">
<rect width="303" height="297" fill="white"/>
</clipPath>
</defs>
</svg>
